<svg width="100" height="102" viewBox="0 0 100 102" fill="none" xmlns="http://www.w3.org/2000/svg">
<g filter="url(#filter0_d_25_61)">
<mask id="path-1-inside-1_25_61" fill="white">
<path d="M0 24C0 10.7452 10.7452 0 24 0H76C89.2548 0 100 10.7452 100 24V76C100 89.2548 89.2548 100 76 100H24C10.7452 100 0 89.2548 0 76V24Z"/>
</mask>
<path d="M0 24C0 10.7452 10.7452 0 24 0H76C89.2548 0 100 10.7452 100 24V76C100 89.2548 89.2548 100 76 100H24C10.7452 100 0 89.2548 0 76V24Z" fill="url(#paint0_linear_25_61)"/>
<path d="M0 24C0 10.1929 11.1929 -1 25 -1H75C88.8071 -1 100 10.1929 100 24C100 11.2975 89.2548 1 76 1H24C10.7452 1 0 11.2975 0 24ZM100 100H0H100ZM0 100V0V100ZM100 0V100V0Z" fill="#434343" mask="url(#path-1-inside-1_25_61)"/>
</g>
<path d="M50.435 85.1852C44.5415 85.1852 39.4464 77.6236 37.1436 65.4388L39.9904 64.8948C41.9671 75.3027 46.1554 82.2841 50.435 82.2841C55.929 82.2841 62.0397 69.1739 62.0397 50.3704C62.0397 31.5669 55.929 18.4566 50.435 18.4566C46.1554 18.4566 41.9671 25.4381 39.9904 35.846L37.1436 35.302C39.4464 23.1171 44.5415 15.5555 50.435 15.5555C58.5766 15.5555 64.9408 30.8412 64.9408 50.3704C64.9408 69.8995 58.5766 85.1852 50.435 85.1852Z" fill="#535FCC"/>
<path d="M30.5796 72.1297C24.523 72.1297 21.9662 69.8268 20.8783 67.8868C16.9073 60.815 26.7537 47.5597 43.3085 37.7319C55.2947 30.606 67.6426 27.2332 74.751 29.1371C77.217 29.79 78.9759 31.041 79.9911 32.8541C80.6079 33.9421 80.8979 35.1931 80.8979 36.5531C80.8799 40.089 79.4291 43.5165 76.6183 46.7437L74.4424 44.8398C76.8181 42.1199 77.9963 39.4 78.0149 36.535C78.0149 35.6649 77.8333 34.9031 77.489 34.2688C76.8723 33.1622 75.712 32.3829 74.0254 31.9292C67.7154 30.2431 55.9837 33.5798 44.7954 40.2159C28.5848 49.8445 20.661 61.5582 23.399 66.4721C24.6861 68.775 28.0409 69.192 30.6699 69.2287C31.7579 69.2287 32.7917 69.2106 34.1336 69.1017L34.3875 71.9847C32.9367 72.1116 31.7946 72.1297 30.6885 72.1297C30.6519 72.1297 30.6158 72.1297 30.5796 72.1297Z" fill="#535FCC"/>
<path d="M70.2903 72.1296C63.0736 72.1296 53.0641 68.8115 43.2905 63.0089C26.7538 53.1811 16.9074 39.9258 20.8783 32.854C21.9663 30.914 24.5412 28.6111 30.5797 28.6111H30.7789C32.0119 28.6111 33.0818 28.6653 34.3514 28.7561L34.1517 31.6572C32.9368 31.5669 31.9216 31.5302 30.7608 31.5302C28.1498 31.5669 24.7229 31.9658 23.4171 34.2868C20.6611 39.1826 28.5849 50.8963 44.7774 60.5249C55.9471 67.161 67.6974 70.4977 74.0074 68.8115C75.6754 68.3579 76.8543 67.5786 77.4524 66.472C77.8153 65.8196 77.9964 65.0217 77.9783 64.133C77.9422 61.939 76.9812 56.1002 68.9123 49.2282L70.7982 47.0156C77.1082 52.3832 80.7891 58.6029 80.898 64.0788C80.9161 65.4929 80.626 66.7806 79.9912 67.8867C78.976 69.6817 77.2171 70.9328 74.7511 71.6037C73.4453 71.9485 71.9404 72.1296 70.2903 72.1296Z" fill="#535FCC"/>
<path d="M48.9082 54.2074C48.2322 54.0731 47.7664 53.7762 47.5107 53.3169C47.2551 52.8576 47.1272 52.2422 47.1272 51.4709C47.1272 51.2716 47.1337 51.0506 47.1467 50.8079C47.1597 50.5609 47.1771 50.3052 47.1987 50.0409C47.2204 49.7766 47.2442 49.5166 47.2702 49.2609C47.3006 49.0009 47.3309 48.7604 47.3612 48.5394C47.3959 48.3141 47.4262 48.1256 47.4522 47.9739C47.5779 47.3326 47.7686 46.8429 48.0242 46.5049C48.2799 46.1626 48.6201 45.9914 49.0447 45.9914C49.3351 45.9914 49.5496 46.0477 49.6882 46.1604C49.8269 46.2731 49.9179 46.4312 49.9612 46.6349C50.0046 46.8386 50.0262 47.0791 50.0262 47.3564C50.0262 47.4777 50.0241 47.6121 50.0197 47.7594C50.0154 47.9067 50.0111 48.0627 50.0067 48.2274C50.0024 48.3877 49.9981 48.5546 49.9937 48.7279C49.9894 48.9012 49.9851 49.0724 49.9807 49.2414C49.9807 49.4104 49.9807 49.5772 49.9807 49.7419C49.9807 49.9022 49.9851 50.0539 49.9937 50.1969C50.0067 50.4656 50.0327 50.6952 50.0717 50.8859C50.1151 51.0722 50.1822 51.2239 50.2732 51.3409C50.3642 51.4579 50.4899 51.5446 50.6502 51.6009C50.8149 51.6529 51.0272 51.6832 51.2872 51.6919C51.6296 51.7179 51.9524 51.7482 52.2557 51.7829C52.5634 51.8132 52.8126 51.8414 53.0032 51.8674C53.1982 51.8674 53.3737 51.8804 53.5297 51.9064C53.6857 51.9281 53.8071 51.9671 53.8937 52.0234C53.9804 52.0797 54.0432 52.1556 54.0822 52.2509C54.1256 52.3419 54.1472 52.4654 54.1472 52.6214C54.1472 52.8814 54.0757 53.1046 53.9327 53.2909C53.7897 53.4729 53.5991 53.6267 53.3607 53.7524C53.1267 53.8737 52.8646 53.9756 52.5742 54.0579C52.2969 54.1316 51.9654 54.1901 51.5797 54.2334C51.1984 54.2811 50.8171 54.3049 50.4357 54.3049C50.2624 54.3049 50.0826 54.3027 49.8962 54.2984C49.7099 54.2941 49.5322 54.2832 49.3632 54.2659C49.1942 54.2486 49.0426 54.2291 48.9082 54.2074Z" fill="#A5AADA"/>
<defs>
<filter id="filter0_d_25_61" x="0" y="0" width="100" height="102" filterUnits="userSpaceOnUse" color-interpolation-filters="sRGB">
<feFlood flood-opacity="0" result="BackgroundImageFix"/>
<feColorMatrix in="SourceAlpha" type="matrix" values="0 0 0 0 0 0 0 0 0 0 0 0 0 0 0 0 0 0 127 0" result="hardAlpha"/>
<feOffset dy="2"/>
<feComposite in2="hardAlpha" operator="out"/>
<feColorMatrix type="matrix" values="0 0 0 0 0 0 0 0 0 0 0 0 0 0 0 0 0 0 1 0"/>
<feBlend mode="normal" in2="BackgroundImageFix" result="effect1_dropShadow_25_61"/>
<feBlend mode="normal" in="SourceGraphic" in2="effect1_dropShadow_25_61" result="shape"/>
</filter>
<linearGradient id="paint0_linear_25_61" x1="-1.74756e-06" y1="7.76699" x2="88.3083" y2="100.861" gradientUnits="userSpaceOnUse">
<stop stop-color="#252528"/>
<stop offset="0.5188" stop-color="#1C1C1E"/>
<stop offset="1" stop-color="#141415"/>
</linearGradient>
</defs>
</svg>
