<svg width="61" height="71" viewBox="0 0 61 71" fill="none" xmlns="http://www.w3.org/2000/svg">
<path d="M30.435 70.1852C24.5415 70.1852 19.4464 62.6236 17.1436 50.4388L19.9904 49.8948C21.9671 60.3027 26.1554 67.2841 30.435 67.2841C35.929 67.2841 42.0397 54.1739 42.0397 35.3704C42.0397 16.5669 35.929 3.4566 30.435 3.4566C26.1554 3.4566 21.9671 10.4381 19.9904 20.846L17.1436 20.302C19.4464 8.1171 24.5415 0.555542 30.435 0.555542C38.5766 0.555542 44.9408 15.8412 44.9408 35.3704C44.9408 54.8995 38.5766 70.1852 30.435 70.1852Z" fill="#535FCC"/>
<path d="M10.5796 57.1297C4.52305 57.1297 1.96623 54.8268 0.878266 52.8868C-3.09269 45.815 6.75369 32.5597 23.3085 22.7319C35.2947 15.606 47.6426 12.2332 54.751 14.1371C57.217 14.79 58.9759 16.041 59.9911 17.8541C60.6079 18.9421 60.8979 20.1931 60.8979 21.5531C60.8799 25.089 59.4291 28.5165 56.6183 31.7437L54.4424 29.8398C56.8181 27.1199 57.9963 24.4 58.0149 21.535C58.0149 20.6649 57.8333 19.9031 57.489 19.2688C56.8723 18.1622 55.712 17.3829 54.0254 16.9292C47.7154 15.2431 35.9837 18.5798 24.7954 25.2159C8.58485 34.8445 0.660992 46.5582 3.39896 51.4721C4.68614 53.775 8.04087 54.192 10.6699 54.2287C11.7579 54.2287 12.7917 54.2106 14.1336 54.1017L14.3875 56.9847C12.9367 57.1116 11.7946 57.1297 10.6885 57.1297C10.6519 57.1297 10.6158 57.1297 10.5796 57.1297Z" fill="#535FCC"/>
<path d="M50.2903 57.1296C43.0736 57.1296 33.0641 53.8115 23.2905 48.0089C6.75375 38.1811 -3.09263 24.9258 0.878326 17.854C1.96629 15.914 4.54117 13.6111 10.5797 13.6111H10.7789C12.0119 13.6111 13.0818 13.6653 14.3514 13.7561L14.1517 16.6572C12.9368 16.5669 11.9216 16.5302 10.7608 16.5302C8.14983 16.5669 4.72285 16.9658 3.41708 19.2868C0.661052 24.1826 8.58491 35.8963 24.7774 45.5249C35.9471 52.161 47.6974 55.4977 54.0074 53.8115C55.6754 53.3579 56.8543 52.5786 57.4524 51.472C57.8153 50.8196 57.9964 50.0217 57.9783 49.133C57.9422 46.939 56.9812 41.1002 48.9123 34.2282L50.7982 32.0156C57.1082 37.3832 60.7891 43.6029 60.898 49.0788C60.9161 50.4929 60.626 51.7806 59.9912 52.8867C58.976 54.6817 57.2171 55.9328 54.7511 56.6037C53.4453 56.9485 51.9404 57.1296 50.2903 57.1296Z" fill="#535FCC"/>
<path d="M28.9082 39.2074C28.2322 39.0731 27.7664 38.7762 27.5107 38.3169C27.2551 37.8576 27.1272 37.2422 27.1272 36.4709C27.1272 36.2716 27.1337 36.0506 27.1467 35.8079C27.1597 35.5609 27.1771 35.3052 27.1987 35.0409C27.2204 34.7766 27.2442 34.5166 27.2702 34.2609C27.3006 34.0009 27.3309 33.7604 27.3612 33.5394C27.3959 33.3141 27.4262 33.1256 27.4522 32.9739C27.5779 32.3326 27.7686 31.8429 28.0242 31.5049C28.2799 31.1626 28.6201 30.9914 29.0447 30.9914C29.3351 30.9914 29.5496 31.0477 29.6882 31.1604C29.8269 31.2731 29.9179 31.4312 29.9612 31.6349C30.0046 31.8386 30.0262 32.0791 30.0262 32.3564C30.0262 32.4777 30.0241 32.6121 30.0197 32.7594C30.0154 32.9067 30.0111 33.0627 30.0067 33.2274C30.0024 33.3877 29.9981 33.5546 29.9937 33.7279C29.9894 33.9012 29.9851 34.0724 29.9807 34.2414C29.9807 34.4104 29.9807 34.5772 29.9807 34.7419C29.9807 34.9022 29.9851 35.0539 29.9937 35.1969C30.0067 35.4656 30.0327 35.6952 30.0717 35.8859C30.1151 36.0722 30.1822 36.2239 30.2732 36.3409C30.3642 36.4579 30.4899 36.5446 30.6502 36.6009C30.8149 36.6529 31.0272 36.6832 31.2872 36.6919C31.6296 36.7179 31.9524 36.7482 32.2557 36.7829C32.5634 36.8132 32.8126 36.8414 33.0032 36.8674C33.1982 36.8674 33.3737 36.8804 33.5297 36.9064C33.6857 36.9281 33.8071 36.9671 33.8937 37.0234C33.9804 37.0797 34.0432 37.1556 34.0822 37.2509C34.1256 37.3419 34.1472 37.4654 34.1472 37.6214C34.1472 37.8814 34.0757 38.1046 33.9327 38.2909C33.7897 38.4729 33.5991 38.6267 33.3607 38.7524C33.1267 38.8737 32.8646 38.9756 32.5742 39.0579C32.2969 39.1316 31.9654 39.1901 31.5797 39.2334C31.1984 39.2811 30.8171 39.3049 30.4357 39.3049C30.2624 39.3049 30.0826 39.3027 29.8962 39.2984C29.7099 39.2941 29.5322 39.2832 29.3632 39.2659C29.1942 39.2486 29.0426 39.2291 28.9082 39.2074Z" fill="#A5AADA"/>
</svg>
